<?xml version="1.0" encoding="UTF-8"?>
<svg version="1.1" xmlns="http://www.w3.org/2000/svg" width="659" height="794">
<path d="M0 0 C217.47 0 434.94 0 659 0 C659 262.02 659 524.04 659 794 C441.53 794 224.06 794 0 794 C0 531.98 0 269.96 0 0 Z " fill="rgb(50,50,50)" transform="translate(0,0)"/>
<path d="M0 0 C0.99 0 1.98 0 3 0 C2.99777939 0.68523239 2.99555878 1.37046478 2.99327087 2.07646179 C2.97308245 8.59166043 2.95793247 15.10685011 2.94818783 21.62207317 C2.94300932 24.97015427 2.93544891 28.31818953 2.92456055 31.66625977 C2.91231307 35.53141957 2.90673027 39.39654296 2.90234375 43.26171875 C2.89718246 44.44142746 2.89202118 45.62113617 2.88670349 46.83659363 C2.69855136 61.93579809 2.69855136 61.93579809 5.875 76.5625 C6.20242187 77.51253906 6.52984375 78.46257812 6.8671875 79.44140625 C7.99095393 81.97956837 9.32318622 83.80427454 11 86 C11.88176307 87.79923618 12.7333689 89.61341158 13.5625 91.4375 C21.5231377 107.49468872 35.19030734 120.25846039 47.76171875 132.74609375 C48.26477036 133.24635071 48.76782196 133.74660767 49.28611755 134.26202393 C51.77946757 136.73937137 54.2792687 139.20953367 56.79174805 141.66748047 C62.9925272 147.78949746 68.58584123 154.17824104 74 161 C75.28959151 162.54340293 76.5809102 164.08536677 77.875 165.625 C81.10486081 169.76911375 82.74110023 173.92843237 84 179 C84.66 179 85.32 179 86 179 C93.03201981 194.07366876 99.4318849 210.15648891 99 227 C99.66 227 100.32 227 101 227 C101.85709163 232.2172662 102.17335942 237.25609556 102.203125 242.5390625 C102.20882507 243.34177582 102.21452515 244.14448914 102.22039795 244.9715271 C102.22979788 246.66411035 102.23636188 248.35671149 102.24023438 250.04931641 C102.24989391 252.59701776 102.28094577 255.14389518 102.3125 257.69140625 C102.39535861 270.55198827 100.36873586 281.87500583 96 294 C95.608125 295.2375 95.21625 296.475 94.8125 297.75 C90.33972817 309.31039489 82.55537185 318.30395687 74 327 C73.10667969 327.9384375 72.21335937 328.876875 71.29296875 329.84375 C69 332 69 332 67 332 C67.33 333.65 67.66 335.3 68 337 C68.66 337 69.32 337 70 337 C71.17713663 339.0780065 72.34171974 341.16151783 73.5 343.25 C73.83386719 343.83652344 74.16773438 344.42304687 74.51171875 345.02734375 C76.36076806 348.38582107 77 350.06645784 77 354 C69.9100393 354.43407923 64.93831636 352.74942221 59.4375 348.3125 C56.87829328 346.04706535 55.10718948 343.73262392 53.25 340.875 C50.16889686 336.55982107 46.88829115 335.5245673 41.94140625 333.9765625 C32.970795 330.99827191 26.61205606 326.49886801 21 319 C19.7934375 317.55367187 19.7934375 317.55367187 18.5625 316.078125 C5.00388982 299.23642321 2.34873062 277.01097939 4 256 C5.67741538 243.96207788 8.41094501 230.34506948 18 222 C18.66 222 19.32 222 20 222 C20.33 237.51 20.66 253.02 21 269 C21.66 269 22.32 269 23 269 C23.37125 270.155 23.7425 271.31 24.125 272.5 C26.22820124 278.15549808 29.75534906 282.75534906 34 287 C41.90223954 289.02621527 50.62280523 289.18219797 57.9453125 285.3515625 C67.8862111 278.81249232 71.70272998 266.5613377 74.671875 255.49609375 C76.70237388 240.0497987 75.31901229 222.65451639 65.67578125 209.796875 C62.79107711 206.70371904 59.59344257 204.21862345 56 202 C55.39800781 201.62230469 54.79601562 201.24460937 54.17578125 200.85546875 C47.14370217 198.0906118 36.00317433 199.12460908 29 202 C22.30902728 205.84624387 12.52561523 211.94876953 9 219 C8.34 219 7.68 219 7 219 C6.7525 219.6703125 6.505 220.340625 6.25 221.03125 C5.02233624 223.94695144 3.58039181 226.68644976 2.08032227 229.46923828 C-2.07663807 237.2833843 -4.21273057 244.10991137 -5 253 C-5.2479834 254.36668823 -5.2479834 254.36668823 -5.50097656 255.76098633 C-6.30958178 261.00940385 -6.26343906 266.25362236 -6.29516602 271.5559082 C-6.31224475 273.53295222 -6.35611587 275.50970614 -6.40039062 277.48632812 C-6.45853973 286.40103316 -4.98506152 293.63643611 -2 302 C-1.61922248 303.32190801 -1.2523482 304.64805103 -0.91015625 305.98046875 C0.98950604 313.16767033 3.32634259 319.53906183 7 326 C7.4640625 326.83144531 7.928125 327.66289063 8.40625 328.51953125 C17.61596496 344.46507498 31.54224605 362.79787359 50 368 C65.55915692 369.87200902 76.5560871 365.71062271 89 356.5 C90.35073967 355.35353098 91.68509559 354.18739853 93 353 C93.97259766 352.18208984 93.97259766 352.18208984 94.96484375 351.34765625 C106.20981992 341.1715095 114.92527985 324.6157455 119.28125 310.27734375 C120.11506898 307.63540645 121.12217529 305.08227363 122.125 302.5 C123.70290625 298.24443467 124.51020059 294.4019569 124.7265625 289.875 C125 288 125 288 127 285 C129.91462363 271.88191307 129.30625779 258.09266816 129.26074219 244.74609375 C129.25002193 241.00764752 129.26068839 237.26968169 129.2734375 233.53125 C129.27906616 222.24165906 129.17277979 211.17330327 127.42871094 200.00390625 C127.04027501 197.2822003 126.91924086 194.74324712 127 192 C126.34 192 125.68 192 125 192 C124.80422363 191.01157104 124.80422363 191.01157104 124.60449219 190.00317383 C120.695833 170.40340425 116.36356712 152.12911594 106.4296875 134.5703125 C105.41795038 132.75139712 104.46764504 130.89767804 103.5625 129.0234375 C101.97262362 125.94702671 100.18072248 123.28362422 98.125 120.5 C97.42632812 119.55253906 96.72765625 118.60507812 96.0078125 117.62890625 C94.38897637 115.50930175 92.73806482 113.45862109 91 111.4375 C89 109 89 109 89 107 C93.10017652 107.58995346 95.69536041 109.78057716 98.9375 112.25 C100.46697266 113.40242188 100.46697266 113.40242188 102.02734375 114.578125 C107.55553572 119.08203961 111.78032218 124.12021888 116 129.8125 C116.50789062 130.48603516 117.01578125 131.15957031 117.5390625 131.85351562 C122.53926182 138.55250061 127.11284775 144.76515382 129 153 C129.66 153 130.32 153 131 153 C136.52605859 163.72551797 141.11396161 174.54831714 144.9375 186 C145.31447021 187.11995361 145.69144043 188.23990723 146.07983398 189.39379883 C148.70326284 197.45040678 151 205.47714639 151 214 C151.66 214 152.32 214 153 214 C156.37500771 229.92413094 159.51266 245.59965543 160.41748047 261.89038086 C160.65840943 266.16741907 160.95929327 270.21629027 161.984375 274.3828125 C164.64959394 285.34705633 164.13924565 296.93192769 164.09765625 308.14453125 C164.09578557 309.65052747 164.09436475 311.15652431 164.09336853 312.66252136 C164.08959444 316.57998405 164.07980935 320.49740823 164.06866455 324.41485596 C164.05833905 328.43086222 164.05384732 332.44687485 164.04882812 336.46289062 C164.03818119 344.30861109 164.02116814 352.1543001 164 360 C163.01 360 162.02 360 161 360 C160.72736328 358.25976562 160.72736328 358.25976562 160.44921875 356.484375 C158.85602595 346.51141577 157.2029257 336.60877709 154 327 C147.85162791 330.07418605 142.78354425 335.32468362 139 341 C138.69511682 344.13388689 138.69511682 344.13388689 138.7265625 347.73046875 C138.7096564 349.09742375 138.69179852 350.46436723 138.6730957 351.83129883 C138.66605621 352.54363678 138.65901672 353.25597473 138.65176392 353.98989868 C138.43938176 371.42872619 137.88299861 389.55683886 125.3125 403.1875 C123 405 123 405 120 405 C120 396.09 120 387.18 120 378 C115.94257952 380.70494699 113.29853306 382.46871302 110.125 385.8125 C100.21835365 395.92475599 100.21835365 395.92475599 95.00637817 398.45101929 C91.37103937 400.30724631 88.80254197 402.01480177 86 405 C84.26670949 411.07370906 84.50633024 416.95681884 84.6796875 423.2265625 C84.68471943 425.02004305 84.68414391 426.81354721 84.67825317 428.60702515 C84.67640626 433.32130364 84.74433659 438.03194228 84.82904053 442.74536133 C84.91982826 448.43376159 84.93542363 454.12273827 84.95489693 459.81175804 C84.97050045 464.24751614 84.99895348 468.68162334 85.07125854 473.11685181 C85.19831591 482.56579555 84.99691091 491.70836043 83 501 C82.67 501.33 82.34 501.66 82 502 C81.55700787 504.2658449 81.14636076 506.5380345 80.75 508.8125 C78.99407934 518.167338 76.051817 527.48739959 70 535 C69.34 535 68.68 535 68 535 C68.00666183 533.93750031 68.01332367 532.87500061 68.02018738 531.78030396 C68.08141555 521.69066919 68.12617064 511.60107288 68.15543652 501.51129341 C68.17098894 496.32597135 68.19203292 491.14080112 68.22631836 485.95556641 C68.25928843 480.93696509 68.27693102 475.91850837 68.28463173 470.89980698 C68.29010855 468.99997562 68.3007997 467.10015078 68.31719017 465.20038223 C68.39559972 455.72170199 68.19616418 446.44323533 66.73168945 437.06201172 C66.6235023 436.33451784 66.51531515 435.60702396 66.4038496 434.85748482 C65.53464032 429.95236067 63.94656161 426.88788608 61 423 C59.60335892 423.11562606 58.20768801 423.242992 56.8125 423.375 C56.03519531 423.44460938 55.25789063 423.51421875 54.45703125 423.5859375 C52.00254837 423.87377651 52.00254837 423.87377651 50.00585938 425.01367188 C45.5063475 426.49011989 41.15330512 426.24484217 36.44921875 426.1953125 C35.43527542 426.1924826 34.42133209 426.18965271 33.37666321 426.18673706 C30.14682073 426.17556625 26.91725829 426.15046711 23.6875 426.125 C21.49414464 426.1149662 19.30078492 426.10584105 17.10742188 426.09765625 C11.73818614 426.07563707 6.36911308 426.04219023 1 426 C1.37426758 424.0637207 1.37426758 424.0637207 2 422 C4.01171875 420.98046875 4.01171875 420.98046875 6.6875 420.1875 C18.13212438 416.37262521 29.59461878 411.32341972 36.9375 401.375 C38.03991956 398.91076804 38.61889592 396.66772858 39 394 C38.071875 393.855625 37.14375 393.71125 36.1875 393.5625 C16.87781168 387.99539228 0.94674351 361.42894273 -9 345 C-9.34659668 344.43313477 -9.69319336 343.86626953 -10.05029297 343.28222656 C-14.16033878 336.51387494 -17.78283133 329.6082758 -21 322.375 C-21.45463623 321.36203857 -21.45463623 321.36203857 -21.91845703 320.32861328 C-23.38451728 316.92559733 -24 314.77223949 -24 311 C-27.12197478 312.3089572 -27.12197478 312.3089572 -29 315 C-29.20978017 316.52855444 -29.36824442 318.06431598 -29.5 319.6015625 C-29.5820166 320.55611328 -29.6640332 321.51066406 -29.74853516 322.49414062 C-29.83151855 323.52732422 -29.91450195 324.56050781 -30 325.625 C-30.13027588 327.20958008 -30.13027588 327.20958008 -30.26318359 328.82617188 C-31.15867698 340.20381014 -31.62410835 351.59489737 -32 363 C-33.32 363.33 -34.64 363.66 -36 364 C-38.29597292 357.79164448 -39.67967662 351.80065395 -40.5625 345.25 C-40.78726358 343.60858367 -41.01757568 341.96791587 -41.25390625 340.328125 C-41.39807983 339.25933105 -41.39807983 339.25933105 -41.54516602 338.16894531 C-41.93575613 335.92995042 -41.93575613 335.92995042 -43.01324463 333.71525574 C-44.0920287 330.74676452 -44.24756758 328.53634779 -44.24291992 325.38696289 C-44.24599655 324.28554459 -44.24907318 323.18412628 -44.25224304 322.04933167 C-44.24505753 320.86902878 -44.23787201 319.68872589 -44.23046875 318.47265625 C-44.23001053 317.25098251 -44.22955231 316.02930878 -44.2290802 314.77061462 C-44.22606171 312.1892703 -44.21818749 309.60792774 -44.20581055 307.02661133 C-44.18758465 303.08082605 -44.18530077 299.13527606 -44.18554688 295.18945312 C-44.18063014 292.67968548 -44.17480115 290.16991941 -44.16796875 287.66015625 C-44.16685593 286.48187759 -44.1657431 285.30359894 -44.16459656 284.08961487 C-44.15821671 282.9850444 -44.15183685 281.88047394 -44.14526367 280.74243164 C-44.14145187 279.77600235 -44.13764008 278.80957306 -44.13371277 277.81385803 C-43.99108064 274.81230052 -43.5487351 271.95213104 -43 269 C-42.34 269 -41.68 269 -41 269 C-40.97421875 268.42894531 -40.9484375 267.85789062 -40.921875 267.26953125 C-40.47342039 260.85866882 -38.96677822 255.20219291 -36.97265625 249.10546875 C-36.15088503 246.48174135 -35.52192649 243.94426918 -35 241.25 C-33.97658602 236.46833468 -32.18015303 232.36648213 -30 228 C-29.70206543 227.39623535 -29.40413086 226.7924707 -29.09716797 226.17041016 C-15.78158581 199.3907929 -15.78158581 199.3907929 -9 196 C-8.566875 195.25878906 -8.13375 194.51757812 -7.6875 193.75390625 C-5.78778295 190.65367356 -3.61612061 188.4562947 -1 185.9375 C2.56100279 182.50462475 2.56100279 182.50462475 5.6875 178.69140625 C6.120625 178.13324219 6.55375 177.57507813 7 177 C7.66 177 8.32 177 9 177 C9.22429687 176.41863281 9.44859375 175.83726562 9.6796875 175.23828125 C11.37093912 172.37115943 13.4066843 171.08877209 16.125 169.1875 C20.07519245 166.14865725 20.07519245 166.14865725 22.0625 161.6875 C20.69828346 156.95286612 18.33109959 153.38303016 15.53125 149.35546875 C14 147 14 147 14 145 C13.34 145 12.68 145 12 145 C11.60167969 144.19175781 11.20335937 143.38351562 10.79296875 142.55078125 C10.26316406 141.48214844 9.73335937 140.41351563 9.1875 139.3125 C8.66542969 138.25675781 8.14335937 137.20101562 7.60546875 136.11328125 C6.05710232 133.01630338 6.05710232 133.01630338 4.30078125 130.23046875 C3 128 3 128 3 126 C2.34 126 1.68 126 1 126 C-0.87076105 121.72397473 -2.62753935 117.43522368 -4.23828125 113.0546875 C-4.76347526 111.63801031 -5.30347442 110.2267638 -5.85546875 108.8203125 C-8 103.32306338 -8 103.32306338 -8 100 C-8.66 100 -9.32 100 -10 100 C-10.11593506 99.36908447 -10.23187012 98.73816895 -10.35131836 98.08813477 C-10.87600481 95.24549319 -11.40667024 92.4040005 -11.9375 89.5625 C-12.21110352 88.07266602 -12.21110352 88.07266602 -12.49023438 86.55273438 C-12.66748047 85.60849609 -12.84472656 84.66425781 -13.02734375 83.69140625 C-13.18968506 82.81685791 -13.35202637 81.94230957 -13.51928711 81.04125977 C-13.8068839 79.01771936 -13.8068839 79.01771936 -15 78 C-15.25857926 73.58981123 -15.18525567 69.1668392 -15.1875 64.75 C-15.19974609 63.52796875 -15.21199219 62.3059375 -15.22460938 61.046875 C-15.256157 41.19290203 -11.26432277 16.89648416 0 0 Z " fill="#060606" transform="translate(239,219)"/>
<path d="M0 0 C2.95868892 0.21133492 4.19033866 1.1570294 6.5 3.0625 C9.4305621 6.50591047 11.11688791 9.92757873 13 14 C13.31710937 14.58265625 13.63421875 15.1653125 13.9609375 15.765625 C19.66618572 26.26328173 22.40580797 37.75440069 24.32421875 49.44140625 C24.95816952 52.77972504 25.89603151 55.79365328 27 59 C28.20747973 63.85507473 28.53194369 68.84305845 29 73.8125 C29.06478645 84.07597322 29.06478645 84.07597322 32 93 C32.15655027 94.48638992 32.25066943 95.97949127 32.31640625 97.47265625 C32.35830078 98.37177734 32.40019531 99.27089844 32.44335938 100.19726562 C32.48267578 101.14279297 32.52199219 102.08832031 32.5625 103.0625 C32.60568359 104.01189453 32.64886719 104.96128906 32.69335938 105.93945312 C32.79979276 108.29281353 32.90181008 110.64628354 33 113 C34.18851562 113.11988281 35.37703125 113.23976563 36.6015625 113.36328125 C54.3422243 115.59940074 66.78992549 127.0737669 79 139 C82.41374622 137.60767567 83.74986985 136.27937483 85.47265625 133.04296875 C86.10977539 131.86831055 86.10977539 131.86831055 86.75976562 130.66992188 C87.18966797 129.85072266 87.61957031 129.03152344 88.0625 128.1875 C89.33752001 125.81365145 90.61427166 123.44074019 91.89111328 121.06787109 C92.8082192 119.35763615 93.71591105 117.64235664 94.62109375 115.92578125 C95.07613281 115.29027344 95.53117188 114.65476562 96 114 C96.99 114 97.98 114 99 114 C100.96904789 117.93809577 100.22870847 122.85733468 100.25 127.1875 C100.2809375 128.73147461 100.2809375 128.73147461 100.3125 130.30664062 C100.34379398 136.41287907 99.75863424 140.56134545 97 146 C96.87625 147.11375 96.7525 148.2275 96.625 149.375 C96.01914384 152.88896573 95.36671572 154.17709085 93.5 157.0625 C89.948579 162.95765417 90.10523798 169.27433665 90 176 C90.66 176 91.32 176 92 176 C92.07468636 180.55318701 92.12885256 185.10600998 92.16479492 189.65966797 C92.1797933 191.20562968 92.20019887 192.75154948 92.22631836 194.29736328 C92.46533161 208.81624649 92.46533161 208.81624649 90.48828125 213.4375 C88.2561331 218.78059479 87.93010193 223.81019238 89.78808594 229.34960938 C90.87550313 231.72713102 92.07903817 233.97962362 93.375 236.25 C93.82399658 237.06702393 94.27299316 237.88404785 94.7355957 238.72583008 C100.33791783 248.70926767 106.77819179 258.16119993 114.8203125 266.3515625 C116 268 116 268 116 272 C112.91151332 271.37411268 110.65220845 270.34218816 107.98828125 268.671875 C107.22966797 268.20136719 106.47105469 267.73085938 105.68945312 267.24609375 C104.90505859 266.75238281 104.12066406 266.25867188 103.3125 265.75 C97.29664622 261.98945787 91.23509371 258.38696449 85 255 C85 254.34 85 253.68 85 253 C83.35 253.33 81.7 253.66 80 254 C79.46817712 259.95641623 80.13332292 262.86686405 83.50390625 267.74609375 C88.10797961 274.6822565 91.29844018 282.39734764 94.0078125 290.234375 C95.04546139 293.12671915 96.2226064 295.92782481 97.4375 298.75 C104.904458 316.73025163 107.98566926 334.70271151 110 354 C110.66 354 111.32 354 112 354 C118.2324981 417.78365078 118.2324981 417.78365078 110 443 C109.01 443 108.02 443 107 443 C106.01250069 434.49067224 105.69851056 426.01234491 105.48242188 417.453125 C105.18434951 408.34223389 104.5002139 399.48483027 101 391 C100.44896511 387.92236811 100.05837722 384.84289835 99.66015625 381.7421875 C98.04487973 372.58576792 95.04463872 363.74714348 92.125 354.9375 C91.79886719 353.92623047 91.47273437 352.91496094 91.13671875 351.87304688 C89.21564141 346.06870231 87.00186229 340.65766664 84.13183594 335.25610352 C82.94229404 332.88497396 82.01981514 330.49571142 81.125 328 C79.28953974 323.2232899 76.66447716 319.39084865 73.5859375 315.32421875 C71.96245139 312.94497187 71.05121499 310.67042518 70 308 C61.70920663 295.06735525 50.07894968 285.63722841 37 278 C36.15179688 277.48566406 35.30359375 276.97132813 34.4296875 276.44140625 C30.81772238 274.32079258 27.38265474 272.72587086 23.375 271.5 C15.16515074 268.9201689 10.35372459 263.49822628 5 257 C4.48824219 256.41347656 3.97648437 255.82695312 3.44921875 255.22265625 C0 251.24876761 0 251.24876761 0 249 C-0.66 249 -1.32 249 -2 249 C-7.2558117 238.30066905 -9.05149065 222.37386016 -5.32763672 210.93457031 C-3.77792834 207.75143472 -1.79008911 205.17147207 1 203 C1.66 203 2.32 203 3 203 C3 202.34 3 201.68 3 201 C5.31 200.67 7.62 200.34 10 200 C10 201.65 10 203.3 10 205 C9.34 205 8.68 205 8 205 C8.02287143 208.56390672 8.1002735 212.12463316 8.1875 215.6875 C8.19330078 216.69490234 8.19910156 217.70230469 8.20507812 218.74023438 C8.37324246 224.724844 8.37324246 224.724844 11.05078125 229.95703125 C17.8556679 234.67087988 23.09048685 236.71735333 31.4375 236.5625 C32.69481934 236.54497681 32.69481934 236.54497681 33.97753906 236.52709961 C41.68322138 236.25125242 46.54707523 234.65811907 51.90625 228.98046875 C53.7634531 226.73372517 55.3929121 224.43072044 57 222 C57.474375 221.33355469 57.94875 220.66710937 58.4375 219.98046875 C65.51547147 208.96326911 66.4684489 192.76592857 65 180 C64.04960759 175.79311596 62.71095898 171.9522521 61 168 C60.5875 166.906875 60.175 165.81375 59.75 164.6875 C54.41374844 156.49254225 46.38641928 152.21443685 37 150 C31.62757736 149.48532069 26.40121711 149.76516447 21 150 C20.34 158.58 19.68 167.16 19 176 C13.9638045 174.74095113 13.76535654 173.18993415 11 169 C9.36021682 167.95650161 7.69905634 166.94392019 6 166 C6 165.34 6 164.68 6 164 C0.14334874 164.12201357 -2.87671402 165.8361073 -7.0859375 169.8828125 C-17.28003902 181.15873704 -20.91295115 197.17092744 -20.3515625 212.0625 C-18.23181 235.80372795 -8.03790206 252.84667994 8 270 C9.15181239 271.3072561 10.29793933 272.61955016 11.4375 273.9375 C14.16670759 277.08174838 16.98085368 280.13532048 19.8125 283.1875 C27.42497978 291.56007609 34.10726317 300.5101651 40.4375 309.875 C40.85064453 310.48118164 41.26378906 311.08736328 41.68945312 311.71191406 C48 321.219457 48 321.219457 48 326 C48.66 326 49.32 326 50 326 C53.28285542 332.21536659 55.96513098 338.27906241 58 345 C58.60966048 346.97663357 59.22245858 348.95226602 59.83666992 350.92749023 C60.27927203 352.35205978 60.7195361 353.77735782 61.1574707 355.20336914 C62.19729673 358.56198747 63.29330276 361.83532264 64.6875 365.0625 C69.0226834 376.38509615 68.33344116 389.87555207 68.25 401.8125 C68.24689819 402.60337006 68.24379639 403.39424011 68.24060059 404.20907593 C68.16294168 421.09028622 67.11487521 436.76119115 62 453 C61.72961914 453.86189941 61.45923828 454.72379883 61.18066406 455.61181641 C60.28005614 458.45420603 59.36313131 461.29066485 58.4375 464.125 C58.14464111 465.02645752 57.85178223 465.92791504 57.55004883 466.85668945 C56.09520834 471.20317402 54.69512579 475.23463585 52 479 C51.67 479 51.34 479 51 479 C50.97285265 476.77090129 50.95353746 474.54170633 50.9375 472.3125 C50.92589844 471.07113281 50.91429687 469.82976562 50.90234375 468.55078125 C51 465 51 465 51.47192383 462.69482422 C53.60733099 451.79763318 53.21273829 440.11968245 53.24023438 429.04907227 C53.24994966 426.69967335 53.28112837 424.35114924 53.3125 422.00195312 C53.60115584 380.25404846 36.81940116 344.64225286 8 315 C2.87381924 309.83234091 -2.28081642 304.69319496 -7.45898438 299.57763672 C-12.86038789 294.22993805 -18.09728753 288.81488192 -23 283 C-23.99419579 281.84974511 -24.98896857 280.69998864 -25.984375 279.55078125 C-26.90690412 278.47191316 -27.8287897 277.39249441 -28.75 276.3125 C-29.21792969 275.77044922 -29.68585938 275.22839844 -30.16796875 274.66992188 C-37 266.64760756 -37 266.64760756 -37 263 C-37.66 263 -38.32 263 -39 263 C-39.30292969 262.20078125 -39.60585938 261.4015625 -39.91796875 260.578125 C-40.54638672 258.93070312 -40.54638672 258.93070312 -41.1875 257.25 C-41.64253906 256.05503906 -42.09757813 254.86007812 -42.56640625 253.62890625 C-43.83006405 250.43016484 -45.20756059 247.31965335 -46.625 244.1875 C-54.59411404 224.70465022 -54.67216098 199.92213263 -49.8515625 179.6171875 C-47.64225097 170.23268074 -46.70363958 161.1449354 -46.65625 151.515625 C-46.6416272 150.37518738 -46.62700439 149.23474976 -46.61193848 148.05975342 C-46.55030715 143.23606977 -46.51007434 138.41226862 -46.46826172 133.58837891 C-46.43441603 130.04316214 -46.38935843 126.49820686 -46.34375 122.953125 C-46.33583435 121.33256195 -46.33583435 121.33256195 -46.32775879 119.67926025 C-46.25031448 113.78035254 -45.70135037 108.6558863 -44 103 C-43.01 103 -42.02 103 -41 103 C-40.83564453 103.89138672 -40.83564453 103.89138672 -40.66796875 104.80078125 C-40.14375519 107.54118223 -39.5773646 110.27030788 -39 113 C-38.81695312 113.91136719 -38.63390625 114.82273437 -38.4453125 115.76171875 C-36.76900959 123.0153505 -33.60094419 128.18894446 -29 134 C-25.37324375 132.5104394 -23.49519045 130.48666736 -21 127.5 C-15.03207985 120.69361173 -8.28034028 114.80628227 -0.69921875 109.8359375 C2.06483681 108.27703408 2.06483681 108.27703408 3 106 C7.42867228 77.11493724 6.77665265 48.76407356 2.3671875 19.96899414 C2.03365788 17.27214993 1.92958987 14.71299021 2 12 C1.34 12 0.68 12 0 12 C-0.19401633 10.18818595 -0.38004375 8.37551468 -0.5625 6.5625 C-0.71912109 5.04849609 -0.71912109 5.04849609 -0.87890625 3.50390625 C-0.93884766 2.26447266 -0.93884766 2.26447266 -1 1 C-0.67 0.67 -0.34 0.34 0 0 Z " fill="#060606" transform="translate(296,44)"/>
<path d="M0 0 C0.99 0 1.98 0 3 0 C3 21.78 3 43.56 3 66 C2.67 66 2.34 66 2 66 C1.16847991 62.35161999 0.85270633 58.93865039 0.79467773 55.19995117 C0.77473251 54.05914597 0.75478729 52.91834076 0.73423767 51.7429657 C0.71752518 50.52196671 0.70081268 49.30096771 0.68359375 48.04296875 C0.66281265 46.78486893 0.64203156 45.5267691 0.62062073 44.23054504 C0.56639535 40.89827714 0.51612055 37.56599761 0.46777344 34.23364258 C0.41738916 30.82823445 0.36179177 27.4229118 0.30664062 24.01757812 C0.19963301 17.34512033 0.09783476 10.67259826 0 4 C-0.99 4.66 -1.98 5.32 -3 6 C-1.125 1.125 -1.125 1.125 0 0 Z " fill="#797979" transform="translate(239,219)"/>
<path d="M0 0 C3.70503641 0.60334309 5.85968148 2.22474237 8.75 4.5625 C9.94882812 5.52349609 9.94882812 5.52349609 11.171875 6.50390625 C12.07679688 7.24447266 12.07679688 7.24447266 13 8 C10.50935112 8.68707555 8.62113708 9 6 9 C4.39453125 7.5390625 4.39453125 7.5390625 2.8125 5.625 C2.28269531 4.99851562 1.75289063 4.37203125 1.20703125 3.7265625 C0 2 0 2 0 0 Z " fill="#161616" transform="translate(328,326)"/>
<path d="M0 0 C0.33 0.99 0.66 1.98 1 3 C0.02804687 3.74507812 -0.94390625 4.49015625 -1.9453125 5.2578125 C-5.71104273 9.02354273 -5.75242841 12.55295335 -5.8828125 17.703125 C-5.88023437 18.74984375 -5.87765625 19.7965625 -5.875 20.875 C-5.895625 21.94492187 -5.91625 23.01484375 -5.9375 24.1171875 C-5.98443546 26.74557349 -6.00445653 29.37128216 -6 32 C-6.33 32 -6.66 32 -7 32 C-7.20505665 28.16746871 -7.32820828 24.33636234 -7.4375 20.5 C-7.49615234 19.42234375 -7.55480469 18.3446875 -7.61523438 17.234375 C-7.74154878 11.31564308 -7.46102991 7.77689133 -3.47265625 3.21875 C-2.34267967 2.11682898 -1.19396417 1.03224346 0 0 Z " fill="#888888" transform="translate(384,552)"/>
<path d="M0 0 C0.33 0 0.66 0 1 0 C1.22084624 6.09781001 1.01167675 11.21642935 -1 17 C-1.99 17 -2.98 17 -4 17 C-4 13.7 -4 10.4 -4 7 C-3.67 7.66 -3.34 8.32 -3 9 C-2.34 8.67 -1.68 8.34 -1 8 C-0.53476937 6.10466658 -0.53476937 6.10466658 -0.375 3.9375 C-0.25125 2.638125 -0.1275 1.33875 0 0 Z " fill="#4A4A4A" transform="translate(407,470)"/>
<path d="M0 0 C0.66 0.33 1.32 0.66 2 1 C-0.09814671 3.15202209 -2.20302055 5.29663616 -4.3125 7.4375 C-5.20485352 8.35499023 -5.20485352 8.35499023 -6.11523438 9.29101562 C-6.69208984 9.87431641 -7.26894531 10.45761719 -7.86328125 11.05859375 C-8.65665894 11.86768188 -8.65665894 11.86768188 -9.46606445 12.69311523 C-11 14 -11 14 -14 15 C-14 14.34 -14 13.68 -14 13 C-13.34 13 -12.68 13 -12 13 C-11.77570313 12.43796875 -11.55140625 11.8759375 -11.3203125 11.296875 C-9.61328077 8.32724583 -7.45193456 6.49655833 -4.875 4.25 C-3.96492188 3.45078125 -3.05484375 2.6515625 -2.1171875 1.828125 C-1.06917969 0.92320312 -1.06917969 0.92320312 0 0 Z " fill="#C0C0C0" transform="translate(260,425)"/>
<path d="M0 0 C0.66 0 1.32 0 2 0 C0.41332422 3.90285767 -2.13350481 6.33520982 -5.125 9.25 C-6.03507813 10.14203125 -6.94515625 11.0340625 -7.8828125 11.953125 C-8.58148438 12.62859375 -9.28015625 13.3040625 -10 14 C-10.66 13.67 -11.32 13.34 -12 13 C-10.71520959 11.49410612 -9.42195918 9.99542625 -8.125 8.5 C-7.04605469 7.24703125 -7.04605469 7.24703125 -5.9453125 5.96875 C-5.30335938 5.3190625 -4.66140625 4.669375 -4 4 C-3.34 4 -2.68 4 -2 4 C-1.34 2.68 -0.68 1.36 0 0 Z " fill="#393939" transform="translate(250,392)"/>
<path d="M0 0 C0 0.33 0 0.66 0 1 C-1.5159375 1.2784375 -1.5159375 1.2784375 -3.0625 1.5625 C-7.3398463 2.73616209 -9.62685157 5.29555439 -12.51953125 8.5390625 C-14 10 -14 10 -16 10 C-12.83378622 2.89532517 -7.95235391 -0.97375762 0 0 Z " fill="#BCBCBC" transform="translate(302,208)"/>
<path d="M0 0 C0.33 0.66 0.66 1.32 1 2 C-0.09346881 3.34212062 -1.2001575 4.67347975 -2.3125 6 C-3.23482422 7.11375 -3.23482422 7.11375 -4.17578125 8.25 C-6 10 -6 10 -9 10 C-6.03 6.7 -3.06 3.4 0 0 Z " fill="#3C3C3C" transform="translate(279,167)"/>
<path d="M0 0 C0.99 0 1.98 0 3 0 C2.67 2.31 2.34 4.62 2 7 C1.34 6.01 0.68 5.02 0 4 C-0.99 4.66 -1.98 5.32 -3 6 C-1.125 1.125 -1.125 1.125 0 0 Z " fill="#494949" transform="translate(239,219)"/>
<path d="M0 0 C0.33 0.99 0.66 1.98 1 3 C-1.31 4.98 -3.62 6.96 -6 9 C-4.68775452 5.06326356 -3.08089673 2.77280706 0 0 Z " fill="#BEBEBE" transform="translate(384,552)"/>
<path d="M0 0 C0.33 0.66 0.66 1.32 1 2 C-1.47812494 5.45167403 -2.79606135 7.23163306 -7 8 C-6.02133662 6.85373678 -5.04205413 5.70800212 -4.0625 4.5625 C-3.51722656 3.92441406 -2.97195313 3.28632812 -2.41015625 2.62890625 C-1.63204305 1.73008851 -0.84063472 0.84063472 0 0 Z " fill="#3A3A3A" transform="translate(340,564)"/>
<path d="M0 0 C0.66 1.32 1.32 2.64 2 4 C0.35 5.32 -1.3 6.64 -3 8 C-3.66 7.34 -4.32 6.68 -5 6 C-4.34 6 -3.68 6 -3 6 C-2.690625 5.195625 -2.38125 4.39125 -2.0625 3.5625 C-1 1 -1 1 0 0 Z " fill="#CDCDCD" transform="translate(312,748)"/>
</svg>
