<svg version="1.1" id="Layer_1" xmlns="http://www.w3.org/2000/svg" xmlns:xlink="http://www.w3.org/1999/xlink" x="0px" y="0px"
	 width="100%" viewBox="0 0 592 592" enable-background="new 0 0 592 592" xml:space="preserve">
<path fill="#000000" opacity="1.000000" stroke="none" 
	d="
M313.880310,550.649353 
	C341.071869,548.991455 366.906586,543.376648 391.770050,533.448303 
	C424.532776,520.365723 453.322388,501.216797 477.895264,475.949066 
	C498.705444,454.550476 515.043030,430.100983 527.197510,402.727448 
	C537.057800,380.520844 543.809204,357.443054 546.397888,333.453888 
	C552.810059,274.034790 541.095642,218.587189 508.208496,168.041672 
	C483.574921,130.181396 450.947906,101.383789 410.817322,81.025925 
	C389.214142,70.066841 366.270294,62.901306 342.439148,58.578030 
	C339.857513,58.109688 338.246033,58.725697 336.898254,61.371948 
	C320.589508,93.393333 304.148651,125.347572 287.702484,157.298843 
	C267.900848,195.769119 248.046158,234.212082 228.242050,272.681091 
	C209.658661,308.778931 191.103592,344.891296 172.576416,381.018005 
	C171.839371,382.455170 170.714264,383.815186 170.859818,385.610229 
	C171.798065,386.996246 173.246490,386.625214 174.515381,386.627991 
	C190.680435,386.663452 206.845901,386.611115 223.010406,386.714264 
	C226.057114,386.733734 227.709076,385.684967 229.153061,382.865021 
	C246.678391,348.640167 264.380951,314.506165 282.005371,280.332001 
	C292.913208,259.181427 303.769226,238.004150 314.643219,216.836136 
	C324.985138,196.703934 335.316956,176.566589 345.666229,156.438202 
	C346.262604,155.278244 346.656464,153.932159 348.996399,152.924927 
	C394.395294,240.961975 439.821777,329.052582 485.229736,417.107239 
	C483.098511,419.094879 481.007324,418.335052 479.142029,418.336121 
	C406.148743,418.378418 333.155334,418.426453 260.162415,418.251984 
	C254.841904,418.239258 251.870941,419.595398 249.363571,424.581543 
	C233.746246,455.638000 217.751114,486.504608 201.861786,517.424133 
	C195.469894,529.862305 188.864243,542.194641 182.710236,554.748779 
	C180.855698,558.531982 179.020416,558.541321 175.728470,556.941650 
	C157.247665,547.961243 140.064041,536.925781 124.067032,524.097595 
	C96.539375,502.023041 73.919022,475.708923 56.073181,445.205566 
	C39.111305,416.213074 27.912992,385.122314 21.971149,352.203796 
	C18.369879,332.252319 16.622845,311.983643 17.759140,291.691681 
	C19.933025,252.870361 28.555729,215.626633 45.571178,180.404190 
	C60.655464,149.179291 80.857162,121.876831 105.884048,97.973267 
	C137.329147,67.939590 173.741409,46.480064 215.210129,33.391056 
	C233.318344,27.675449 251.810455,24.082293 270.591125,21.735920 
	C272.535034,21.493055 274.580139,21.346964 276.903503,22.409075 
	C273.639801,30.941191 268.351685,38.528324 265.088623,46.967583 
	C261.599701,55.991005 255.533936,59.517277 246.157059,61.392056 
	C216.200150,67.381531 188.613678,79.628685 163.179657,96.507584 
	C144.951599,108.604347 128.676376,122.999985 114.212273,139.471909 
	C97.514427,158.487656 84.076477,179.543747 73.831345,202.648956 
	C64.706169,223.228424 58.254375,244.581528 55.261051,266.953888 
	C53.520393,279.963745 51.982090,292.969452 52.335415,306.128571 
	C53.125519,335.555176 58.343735,364.101837 68.961914,391.633636 
	C79.850197,419.865814 95.315041,445.354279 115.464104,467.825684 
	C129.585327,483.574432 145.160965,497.866302 163.847580,509.446167 
	C166.375519,504.642334 168.918808,499.891724 171.388107,495.102997 
	C183.361755,471.882477 195.298904,448.643097 207.287613,425.430359 
	C210.449829,419.307617 209.958527,418.369080 203.093185,418.387512 
	C174.932541,418.463043 146.771973,418.571808 118.611305,418.631256 
	C117.154686,418.634338 115.697342,418.294281 113.948738,418.077911 
	C114.871872,414.193756 116.783012,411.107117 118.429054,407.898560 
	C132.483276,380.503082 146.479279,353.077637 160.565704,325.698730 
	C176.859604,294.029327 193.230042,262.399231 209.562744,230.749771 
	C225.744339,199.393188 241.891418,168.018753 258.106781,136.679642 
	C275.387360,103.281769 292.734100,69.918114 310.041199,36.533955 
	C312.261047,32.252071 314.411285,27.934141 316.604462,23.638359 
	C317.460510,21.961603 318.271973,20.962349 320.739410,21.120653 
	C345.216248,22.690994 368.997986,27.609785 392.152069,35.579742 
	C427.133179,47.620739 458.614594,65.763283 486.444031,90.171043 
	C519.367432,119.046379 544.332275,153.708405 561.197021,194.090683 
	C570.889465,217.298859 577.550781,241.369156 580.461487,266.455170 
	C581.897400,278.829834 583.475647,291.242981 583.211609,303.644623 
	C582.188721,351.692261 571.409058,397.232727 547.825928,439.554535 
	C532.521545,467.019562 513.529236,491.501709 490.283173,512.464233 
	C456.047394,543.336914 416.618347,564.864563 371.827820,576.666748 
	C342.416260,584.416565 312.573395,586.542786 282.456238,585.188599 
	C261.396088,584.241516 240.659546,580.382996 220.406540,574.308960 
	C219.331436,573.986450 218.347961,573.358521 216.853790,572.651306 
	C221.872986,562.856567 226.792084,553.282898 231.683914,543.695435 
	C233.187775,540.748047 235.614914,542.353088 237.383835,542.832153 
	C247.004501,545.437805 256.813049,546.997437 266.614105,548.669556 
	C282.135193,551.317627 297.779694,550.545349 313.880310,550.649353 
M389.183472,313.165100 
	C375.621674,286.805237 362.059845,260.445343 348.020599,233.157547 
	C321.535797,284.665283 295.590546,335.123688 269.298706,386.256165 
	C322.207275,386.256165 373.997803,386.256165 426.636169,386.256165 
	C414.043701,361.658783 401.797363,337.737549 389.183472,313.165100 
z"/>
</svg>