<svg version="1.1" id="Layer_1" xmlns="http://www.w3.org/2000/svg" xmlns:xlink="http://www.w3.org/1999/xlink" x="0px" y="0px"
	 width="100%" viewBox="0 0 246 205" enable-background="new 0 0 246 205" xml:space="preserve">
<path fill="rgb(50, 50, 50)" opacity="0" stroke="none" 
	d="
M150.000000,206.000000 
	C100.000000,206.000000 50.500008,206.000000 1.000007,206.000000 
	C1.000004,137.666672 1.000004,69.333351 1.000002,1.000016 
	C82.999992,1.000010 164.999985,1.000010 246.999969,1.000005 
	C246.999985,69.333321 246.999985,137.666641 247.000000,205.999969 
	C214.833328,206.000000 182.666672,206.000000 150.000000,206.000000 
M165.603180,112.099586 
	C166.766205,122.782394 168.979355,133.483551 168.793030,144.142776 
	C168.611496,154.529922 169.458374,164.651840 171.000519,174.824997 
	C171.493759,178.078751 172.888351,180.283157 176.787048,180.859894 
	C178.152786,172.501495 180.554977,164.380341 180.547348,156.261429 
	C180.536667,144.871567 178.406189,133.501251 177.784515,122.089760 
	C177.083725,109.225853 174.539810,96.210152 179.509735,83.555489 
	C179.745636,82.954834 179.003525,82.022133 178.878113,81.218903 
	C178.189316,76.807022 176.990784,72.386574 176.996506,67.970398 
	C177.016342,52.674969 177.579453,37.380615 177.646805,22.084576 
	C177.660706,18.926573 176.430603,15.763090 175.773865,12.602134 
	C175.285156,12.677512 174.796463,12.752892 174.307755,12.828270 
	C173.659683,14.856662 173.011627,16.885054 172.208466,19.398874 
	C170.474274,19.267244 168.327316,19.703764 166.944778,18.871088 
	C164.292999,17.273966 162.774994,18.538774 162.444839,20.590405 
	C161.496140,26.485611 158.494339,25.486153 154.782471,23.427710 
	C153.829803,22.899399 152.643600,22.792202 151.107712,22.364199 
	C150.254227,24.741144 149.695404,27.007692 148.641068,29.013844 
	C147.764847,30.681118 146.565796,32.949158 145.059860,33.380558 
	C138.820892,35.167805 137.307388,39.745346 136.642258,45.334053 
	C136.270981,48.453518 135.204254,51.486000 134.523636,54.573708 
	C132.951508,61.705952 129.896698,68.924255 130.248550,75.967506 
	C130.733124,85.667305 133.805908,95.237808 135.641357,104.233543 
	C137.964752,104.233543 139.462448,104.233543 140.960144,104.233543 
	C140.802246,107.453918 141.469635,111.015549 140.309418,113.821465 
	C138.100784,119.162956 134.258240,123.841743 132.155441,129.211334 
	C128.160080,139.413574 125.231567,150.033035 121.251846,160.242157 
	C118.121628,168.272064 117.698982,176.573654 117.139908,184.930984 
	C117.108315,185.403275 117.756020,185.921005 118.258049,186.672943 
	C121.798134,182.175934 125.928841,178.355392 128.273926,173.645706 
	C132.828003,164.499725 136.371429,154.851105 140.348129,145.416855 
	C144.092316,136.534225 148.383148,127.836555 151.439545,118.724129 
	C153.799881,111.686958 158.615189,108.421463 165.239288,106.225525 
	C165.323807,107.944283 165.404205,109.579010 165.603180,112.099586 
M63.323345,167.126266 
	C65.119408,173.459961 66.908562,179.795609 68.714752,186.126419 
	C69.495438,188.862747 70.311333,191.589020 71.266144,194.848724 
	C73.238426,193.700912 74.280167,193.094635 74.824211,192.778015 
	C77.344193,195.029449 79.546638,196.997192 82.177757,199.347916 
	C83.582008,195.833008 85.818855,193.078903 85.343925,190.921860 
	C83.462067,182.374817 80.991577,173.928558 78.237648,165.611023 
	C75.826111,158.327606 72.362961,151.386826 70.049507,144.077835 
	C66.942047,134.260300 64.925949,124.088387 61.638996,114.339111 
	C58.422115,104.797661 53.756531,95.742958 50.572689,86.192619 
	C48.468369,79.880432 46.433544,72.946541 46.993042,66.519554 
	C47.513096,60.545643 50.683197,54.310696 54.163616,49.195713 
	C60.131195,40.425476 62.669495,30.536816 65.591309,20.713009 
	C66.788483,16.687826 67.295135,12.457269 68.426781,6.753204 
	C64.744911,9.461848 62.323177,11.243446 59.734737,13.147688 
	C59.372223,12.346483 59.259815,11.876685 58.983051,11.543349 
	C58.650059,11.142293 58.177292,10.857287 57.701408,10.470288 
	C52.100674,23.878941 46.643646,36.943535 41.299362,49.738216 
	C37.943768,49.140938 35.633739,48.729763 32.908821,48.244743 
	C32.908821,51.262177 32.829655,53.709457 32.930431,56.149303 
	C33.037533,58.742256 33.470554,61.402760 28.912617,62.963512 
	C29.949511,50.613861 23.529634,39.845524 25.549648,27.942894 
	C26.670340,21.339399 24.679031,15.358969 21.235968,9.053675 
	C18.785496,14.744046 14.870247,19.079884 15.802094,25.507215 
	C16.464317,30.074844 16.084435,34.824387 15.862711,39.478107 
	C15.723496,42.400074 14.375632,45.363415 14.677618,48.189857 
	C15.825887,58.937145 17.589991,69.618820 18.726311,80.367050 
	C18.975494,82.724007 18.254587,85.767319 16.832792,87.608154 
	C12.491150,93.229370 11.646407,98.449646 14.934616,105.042427 
	C16.403391,103.920357 17.872164,102.798286 20.649618,100.676460 
	C20.649618,105.783951 21.070101,109.458244 20.574621,113.004578 
	C18.728243,126.219772 21.193546,139.168716 22.574623,152.188736 
	C23.429939,160.252151 24.327625,168.311859 25.331673,176.357590 
	C25.449369,177.300735 26.273785,178.778610 26.933910,178.873611 
	C27.761168,178.992661 29.416887,178.081787 29.571449,177.367874 
	C30.459913,173.264114 31.517284,169.094818 31.580479,164.933502 
	C31.777424,151.965195 31.462797,138.990097 31.523905,126.018448 
	C31.571461,115.923195 32.099636,105.827087 32.000740,95.735413 
	C31.938440,89.377548 30.098166,82.598175 39.244038,80.414696 
	C47.081326,108.765419 55.044712,137.572296 63.323345,167.126266 
M203.272202,78.993797 
	C203.038071,79.175850 202.821548,79.392982 202.561584,79.523613 
	C202.449097,79.580154 202.108704,79.467720 202.105164,79.416031 
	C201.836746,75.505089 201.591705,71.592537 201.263443,66.390823 
	C198.183746,69.151817 195.986282,70.417351 194.812057,72.315765 
	C192.050430,76.780548 189.686111,81.501999 187.338135,86.207954 
	C185.713028,89.465096 182.017746,92.691376 186.886215,96.446266 
	C187.630463,97.020279 187.550415,98.966110 187.471451,100.254150 
	C187.035080,107.371750 185.979797,114.489487 186.084290,121.593239 
	C186.241638,132.288467 183.653717,143.105469 187.178696,153.683792 
	C188.110367,156.479721 189.044205,159.274918 190.398895,163.334656 
	C193.733917,158.526169 197.347214,155.569244 197.846741,152.156540 
	C199.135391,143.352798 199.002274,134.344879 199.532425,125.424194 
	C199.735992,121.998672 198.989014,116.737999 200.795059,115.557953 
	C204.514618,113.127594 203.831024,110.158264 204.217072,107.137749 
	C205.194519,99.490059 205.846802,91.729820 214.255096,86.795204 
	C218.065018,94.141907 225.042099,99.680855 223.643631,109.699997 
	C222.570953,117.385010 222.859711,125.310715 223.097992,133.112427 
	C223.298187,139.666458 224.311478,146.194824 224.942474,152.736710 
	C225.623962,159.802246 230.014679,164.449554 235.448212,168.811432 
	C236.521759,163.760330 237.250626,158.855774 237.021988,153.996277 
	C236.647232,146.032166 235.612503,138.100449 234.950684,130.147217 
	C234.831833,128.719116 234.638580,126.413437 235.382950,125.943405 
	C239.613785,123.271843 237.966156,119.772415 237.422607,116.217735 
	C236.402069,109.543701 236.362549,103.024521 233.456665,96.332153 
	C229.970001,88.302185 229.709641,78.880608 227.964462,70.079025 
	C227.495895,67.715843 226.708252,65.415916 226.067078,63.086956 
	C225.526932,63.139248 224.986786,63.191536 224.446640,63.243828 
	C223.747162,64.824013 223.047684,66.404198 222.335510,68.013115 
	C213.907471,67.444473 209.359573,73.895935 203.272202,78.993797 
M121.589203,116.298790 
	C121.520439,112.809654 122.160477,109.124214 121.258087,105.865952 
	C117.682709,92.956238 113.667557,80.167007 109.728592,67.359818 
	C107.566124,60.328743 103.284592,55.250507 94.713974,52.690163 
	C95.778641,59.619740 96.737755,65.862312 97.744751,72.416534 
	C97.076332,72.572983 94.696198,72.420563 94.080086,73.389648 
	C90.142532,79.583046 84.882706,85.632423 83.319817,92.474297 
	C81.023903,102.525139 81.051826,113.193810 80.889381,123.611725 
	C80.794983,129.665207 81.887756,135.822433 83.146217,141.785263 
	C84.181770,146.691925 86.156982,151.414948 87.914803,156.145370 
	C88.425766,157.520401 90.163139,159.820328 90.422417,159.701309 
	C94.353775,157.896393 96.228828,161.016800 98.635117,162.829498 
	C102.743248,165.924240 108.277618,165.641479 110.241013,161.752090 
	C112.936188,156.413055 115.899933,150.976364 117.221214,145.230316 
	C119.332031,136.050690 120.186623,126.582191 121.589203,116.298790 
z"/>
<path fill="#080808" opacity="1.000000" stroke="none" 
	d="
M165.543884,111.656662 
	C165.404205,109.579010 165.323807,107.944283 165.239288,106.225525 
	C158.615189,108.421463 153.799881,111.686958 151.439545,118.724129 
	C148.383148,127.836555 144.092316,136.534225 140.348129,145.416855 
	C136.371429,154.851105 132.828003,164.499725 128.273926,173.645706 
	C125.928841,178.355392 121.798134,182.175934 118.258049,186.672943 
	C117.756020,185.921005 117.108315,185.403275 117.139908,184.930984 
	C117.698982,176.573654 118.121628,168.272064 121.251846,160.242157 
	C125.231567,150.033035 128.160080,139.413574 132.155441,129.211334 
	C134.258240,123.841743 138.100784,119.162956 140.309418,113.821465 
	C141.469635,111.015549 140.802246,107.453918 140.960144,104.233543 
	C139.462448,104.233543 137.964752,104.233543 135.641357,104.233543 
	C133.805908,95.237808 130.733124,85.667305 130.248550,75.967506 
	C129.896698,68.924255 132.951508,61.705952 134.523636,54.573708 
	C135.204254,51.486000 136.270981,48.453518 136.642258,45.334053 
	C137.307388,39.745346 138.820892,35.167805 145.059860,33.380558 
	C146.565796,32.949158 147.764847,30.681118 148.641068,29.013844 
	C149.695404,27.007692 150.254227,24.741144 151.107712,22.364199 
	C152.643600,22.792202 153.829803,22.899399 154.782471,23.427710 
	C158.494339,25.486153 161.496140,26.485611 162.444839,20.590405 
	C162.774994,18.538774 164.292999,17.273966 166.944778,18.871088 
	C168.327316,19.703764 170.474274,19.267244 172.208466,19.398874 
	C173.011627,16.885054 173.659683,14.856662 174.307755,12.828270 
	C174.796463,12.752892 175.285156,12.677512 175.773865,12.602134 
	C176.430603,15.763090 177.660706,18.926573 177.646805,22.084576 
	C177.579453,37.380615 177.016342,52.674969 176.996506,67.970398 
	C176.990784,72.386574 178.189316,76.807022 178.878113,81.218903 
	C179.003525,82.022133 179.745636,82.954834 179.509735,83.555489 
	C174.539810,96.210152 177.083725,109.225853 177.784515,122.089760 
	C178.406189,133.501251 180.536667,144.871567 180.547348,156.261429 
	C180.554977,164.380341 178.152786,172.501495 176.787048,180.859894 
	C172.888351,180.283157 171.493759,178.078751 171.000519,174.824997 
	C169.458374,164.651840 168.611496,154.529922 168.793030,144.142776 
	C168.979355,133.483551 166.766205,122.782394 165.543884,111.656662 
M164.954941,48.859600 
	C165.202316,46.775719 165.449677,44.691837 165.779114,41.916718 
	C163.254501,42.102859 160.476227,41.461018 159.234024,42.558220 
	C155.523453,45.835697 151.400131,49.312126 149.351273,53.620682 
	C147.226593,58.088696 147.031921,63.591221 146.545242,68.693947 
	C145.822388,76.272789 146.388367,83.760765 149.821762,91.173393 
	C151.058746,89.540100 151.901352,88.427536 153.111557,86.829605 
	C154.288452,89.098366 155.089951,90.643471 155.365082,91.173828 
	C158.495758,91.741974 160.692276,92.140587 164.148636,92.767830 
	C164.735046,87.946274 165.812256,83.031937 165.828339,78.114143 
	C165.859207,68.672470 165.288284,59.228821 164.954941,48.859600 
z"/>
<path fill="#080808" opacity="1.000000" stroke="none" 
	d="
M63.165718,166.752716 
	C55.044712,137.572296 47.081326,108.765419 39.244038,80.414696 
	C30.098166,82.598175 31.938440,89.377548 32.000740,95.735413 
	C32.099636,105.827087 31.571461,115.923195 31.523905,126.018448 
	C31.462797,138.990097 31.777424,151.965195 31.580479,164.933502 
	C31.517284,169.094818 30.459913,173.264114 29.571449,177.367874 
	C29.416887,178.081787 27.761168,178.992661 26.933910,178.873611 
	C26.273785,178.778610 25.449369,177.300735 25.331673,176.357590 
	C24.327625,168.311859 23.429939,160.252151 22.574623,152.188736 
	C21.193546,139.168716 18.728243,126.219772 20.574621,113.004578 
	C21.070101,109.458244 20.649618,105.783951 20.649618,100.676460 
	C17.872164,102.798286 16.403391,103.920357 14.937235,105.040230 
	C11.646407,98.449646 12.491150,93.229370 16.832792,87.608154 
	C18.254587,85.767319 18.975494,82.724007 18.726311,80.367050 
	C17.589991,69.618820 15.825887,58.937145 14.677618,48.189857 
	C14.375632,45.363415 15.723496,42.400074 15.862711,39.478107 
	C16.084435,34.824387 16.464317,30.074844 15.802094,25.507215 
	C14.870247,19.079884 18.785496,14.744046 21.235968,9.053675 
	C24.679031,15.358969 26.670340,21.339399 25.549648,27.942894 
	C23.529634,39.845524 29.949511,50.613861 28.912617,62.963512 
	C33.470554,61.402760 33.037533,58.742256 32.930431,56.149303 
	C32.829655,53.709457 32.908821,51.262177 32.908821,48.244743 
	C35.633739,48.729763 37.943768,49.140938 41.299362,49.738216 
	C46.643646,36.943535 52.100674,23.878941 57.701408,10.470288 
	C58.177292,10.857287 58.650059,11.142293 58.983051,11.543349 
	C59.259815,11.876685 59.372223,12.346483 59.734737,13.147688 
	C62.323177,11.243446 64.744911,9.461848 68.426781,6.753204 
	C67.295135,12.457269 66.788483,16.687826 65.591309,20.713009 
	C62.669495,30.536816 60.131195,40.425476 54.163616,49.195713 
	C50.683197,54.310696 47.513096,60.545643 46.993042,66.519554 
	C46.433544,72.946541 48.468369,79.880432 50.572689,86.192619 
	C53.756531,95.742958 58.422115,104.797661 61.638996,114.339111 
	C64.925949,124.088387 66.942047,134.260300 70.049507,144.077835 
	C72.362961,151.386826 75.826111,158.327606 78.237648,165.611023 
	C80.991577,173.928558 83.462067,182.374817 85.343925,190.921860 
	C85.818855,193.078903 83.582008,195.833008 82.177757,199.347916 
	C79.546638,196.997192 77.344193,195.029449 74.824211,192.778015 
	C74.280167,193.094635 73.238426,193.700912 71.266144,194.848724 
	C70.311333,191.589020 69.495438,188.862747 68.714752,186.126419 
	C66.908562,179.795609 65.119408,173.459961 63.165718,166.752716 
z"/>
<path fill="#080808" opacity="1.000000" stroke="none" 
	d="
M203.491333,78.683403 
	C209.359573,73.895935 213.907471,67.444473 222.335510,68.013115 
	C223.047684,66.404198 223.747162,64.824013 224.446640,63.243828 
	C224.986786,63.191536 225.526932,63.139248 226.067078,63.086956 
	C226.708252,65.415916 227.495895,67.715843 227.964462,70.079025 
	C229.709641,78.880608 229.970001,88.302185 233.456665,96.332153 
	C236.362549,103.024521 236.402069,109.543701 237.422607,116.217735 
	C237.966156,119.772415 239.613785,123.271843 235.382950,125.943405 
	C234.638580,126.413437 234.831833,128.719116 234.950684,130.147217 
	C235.612503,138.100449 236.647232,146.032166 237.021988,153.996277 
	C237.250626,158.855774 236.521759,163.760330 235.448212,168.811432 
	C230.014679,164.449554 225.623962,159.802246 224.942474,152.736710 
	C224.311478,146.194824 223.298187,139.666458 223.097992,133.112427 
	C222.859711,125.310715 222.570953,117.385010 223.643631,109.699997 
	C225.042099,99.680855 218.065018,94.141907 214.255096,86.795204 
	C205.846802,91.729820 205.194519,99.490059 204.217072,107.137749 
	C203.831024,110.158264 204.514618,113.127594 200.795059,115.557953 
	C198.989014,116.737999 199.735992,121.998672 199.532425,125.424194 
	C199.002274,134.344879 199.135391,143.352798 197.846741,152.156540 
	C197.347214,155.569244 193.733917,158.526169 190.398895,163.334656 
	C189.044205,159.274918 188.110367,156.479721 187.178696,153.683792 
	C183.653717,143.105469 186.241638,132.288467 186.084290,121.593239 
	C185.979797,114.489487 187.035080,107.371750 187.471451,100.254150 
	C187.550415,98.966110 187.630463,97.020279 186.886215,96.446266 
	C182.017746,92.691376 185.713028,89.465096 187.338135,86.207954 
	C189.686111,81.501999 192.050430,76.780548 194.812057,72.315765 
	C195.986282,70.417351 198.183746,69.151817 201.263443,66.390823 
	C201.591705,71.592537 201.836746,75.505089 202.105164,79.416031 
	C202.108704,79.467720 202.449097,79.580154 202.561584,79.523613 
	C202.821548,79.392982 203.038071,79.175850 203.491333,78.683403 
z"/>
<path fill="#090909" opacity="1.000000" stroke="none" 
	d="
M121.580765,116.767303 
	C120.186623,126.582191 119.332031,136.050690 117.221214,145.230316 
	C115.899933,150.976364 112.936188,156.413055 110.241013,161.752090 
	C108.277618,165.641479 102.743248,165.924240 98.635117,162.829498 
	C96.228828,161.016800 94.353775,157.896393 90.422417,159.701309 
	C90.163139,159.820328 88.425766,157.520401 87.914803,156.145370 
	C86.156982,151.414948 84.181770,146.691925 83.146217,141.785263 
	C81.887756,135.822433 80.794983,129.665207 80.889381,123.611725 
	C81.051826,113.193810 81.023903,102.525139 83.319817,92.474297 
	C84.882706,85.632423 90.142532,79.583046 94.080086,73.389648 
	C94.696198,72.420563 97.076332,72.572983 97.744751,72.416534 
	C96.737755,65.862312 95.778641,59.619740 94.713974,52.690163 
	C103.284592,55.250507 107.566124,60.328743 109.728592,67.359818 
	C113.667557,80.167007 117.682709,92.956238 121.258087,105.865952 
	C122.160477,109.124214 121.520439,112.809654 121.580765,116.767303 
M91.653908,116.799072 
	C91.272430,118.055542 90.349480,119.439041 90.608963,120.545143 
	C91.455353,124.152969 92.744644,127.656029 93.841934,131.206085 
	C94.955116,134.807541 96.023727,138.422852 97.148262,142.020721 
	C97.855545,144.283630 99.172073,146.202759 101.737053,144.890579 
	C103.342407,144.069336 105.013603,142.425522 105.611557,140.773117 
	C107.120872,136.602249 108.103828,132.233597 109.174278,127.913605 
	C109.985664,124.639122 111.566177,121.187408 111.139244,118.040466 
	C109.653038,107.085243 107.445648,96.227684 105.475479,85.339684 
	C105.443871,85.164978 104.943016,85.075172 104.585854,84.911179 
	C96.145721,93.562988 88.496025,102.524429 91.653908,116.799072 
z"/>
<path fill="#F5F5F5" opacity="000000" stroke="none" 
	d="
M164.960983,49.322796 
	C165.288284,59.228821 165.859207,68.672470 165.828339,78.114143 
	C165.812256,83.031937 164.735046,87.946274 164.148636,92.767830 
	C160.692276,92.140587 158.495758,91.741974 155.365082,91.173828 
	C155.089951,90.643471 154.288452,89.098366 153.111557,86.829605 
	C151.901352,88.427536 151.058746,89.540100 149.821762,91.173393 
	C146.388367,83.760765 145.822388,76.272789 146.545242,68.693947 
	C147.031921,63.591221 147.226593,58.088696 149.351273,53.620682 
	C151.400131,49.312126 155.523453,45.835697 159.234024,42.558220 
	C160.476227,41.461018 163.254501,42.102859 165.779114,41.916718 
	C165.449677,44.691837 165.202316,46.775719 164.960983,49.322796 
z"/>
<path fill="#F6F6F6" opacity="000000" stroke="none" 
	d="
M91.776436,116.411720 
	C88.496025,102.524429 96.145721,93.562988 104.585854,84.911179 
	C104.943016,85.075172 105.443871,85.164978 105.475479,85.339684 
	C107.445648,96.227684 109.653038,107.085243 111.139244,118.040466 
	C111.566177,121.187408 109.985664,124.639122 109.174278,127.913605 
	C108.103828,132.233597 107.120872,136.602249 105.611557,140.773117 
	C105.013603,142.425522 103.342407,144.069336 101.737053,144.890579 
	C99.172073,146.202759 97.855545,144.283630 97.148262,142.020721 
	C96.023727,138.422852 94.955116,134.807541 93.841934,131.206085 
	C92.744644,127.656029 91.455353,124.152969 90.608963,120.545143 
	C90.349480,119.439041 91.272430,118.055542 91.776436,116.411720 
z"/>
</svg>